<?xml version="1.0" standalone="no"?>
<!DOCTYPE svg PUBLIC "-//W3C//DTD SVG 20010904//EN"
 "http://www.w3.org/TR/2001/REC-SVG-20010904/DTD/svg10.dtd">
<svg version="1.0" xmlns="http://www.w3.org/2000/svg"
 width="134.000000pt" height="126.000000pt" viewBox="0 0 134.000000 126.000000"
 preserveAspectRatio="xMidYMid meet">

<g transform="translate(0.000000,126.000000) scale(0.100000,-0.100000)"
fill="#000000" stroke="none">
<path d="M651 1009 c-194 -38 -308 -233 -241 -411 12 -34 28 -58 36 -58 18 0
18 14 -3 53 -24 46 -22 159 4 217 47 106 125 161 238 168 62 4 80 1 126 -20
75 -35 114 -70 145 -134 35 -71 37 -165 5 -237 l-21 -48 23 3 c33 5 58 84 54
169 -11 193 -185 334 -366 298z"/>
<path d="M565 676 c-17 -12 -18 -17 -7 -41 9 -19 18 -25 34 -23 29 4 46 33 32
56 -15 23 -35 26 -59 8z"/>
<path d="M792 678 c-28 -28 -1 -75 37 -63 25 8 34 31 21 56 -12 21 -40 25 -58
7z"/>
<path d="M465 506 c-96 -22 -135 -44 -135 -78 0 -18 5 -28 15 -28 8 0 15 9 15
19 0 43 191 78 288 52 l42 -12 0 -129 c0 -109 2 -130 15 -130 13 0 15 21 15
129 0 91 4 132 12 137 7 4 50 10 95 12 100 5 223 -27 223 -58 0 -10 7 -21 16
-24 12 -5 15 1 12 32 -3 36 -5 38 -68 61 -73 26 -197 32 -263 13 -22 -6 -49
-7 -67 -2 -58 17 -155 19 -215 6z"/>
<path d="M315 335 c-27 -26 -31 -51 -14 -88 23 -50 80 -56 127 -14 26 24 28
47 7 86 -24 48 -81 56 -120 16z m85 -25 c28 -28 13 -64 -28 -68 -42 -4 -61 28
-37 64 19 29 38 31 65 4z"/>
<path d="M985 335 c-34 -33 -32 -70 5 -107 35 -34 68 -33 108 4 47 45 9 128
-58 128 -19 0 -40 -9 -55 -25z m90 -30 c20 -31 2 -65 -34 -65 -42 0 -59 32
-36 66 19 30 51 29 70 -1z"/>
</g>
</svg>
